<svg width="128" height="27" viewBox="0 0 128 27" fill="none" xmlns="http://www.w3.org/2000/svg">
<g filter="url(#filter0_d_7105_296)">
<path d="M2.01705 10.8864V9.75L11.1648 5.09091V6.90909L4.14773 10.2898L4.20455 10.1761V10.4602L4.14773 10.3466L11.1648 13.7273V15.5455L2.01705 10.8864ZM16.2438 9.4375V16H14.5677V5.09091H16.187V6.79545H16.329C16.5847 6.24148 16.973 5.7964 17.4938 5.46023C18.0147 5.11932 18.687 4.94886 19.5109 4.94886C20.2495 4.94886 20.8958 5.10038 21.4498 5.40341C22.0038 5.7017 22.4346 6.15625 22.7424 6.76705C23.0502 7.37311 23.204 8.14015 23.204 9.06818V16H21.5279V9.18182C21.5279 8.32481 21.3054 7.6572 20.8603 7.17898C20.4152 6.69602 19.8044 6.45455 19.0279 6.45455C18.4929 6.45455 18.0147 6.57055 17.5933 6.80256C17.1766 7.03456 16.8475 7.37311 16.606 7.81818C16.3646 8.26326 16.2438 8.80303 16.2438 9.4375ZM30.5487 16.2273C29.5639 16.2273 28.6998 15.9929 27.9564 15.5241C27.2178 15.0554 26.6401 14.3996 26.2234 13.5568C25.8115 12.714 25.6055 11.7292 25.6055 10.6023C25.6055 9.46591 25.8115 8.47396 26.2234 7.62642C26.6401 6.77888 27.2178 6.12074 27.9564 5.65199C28.6998 5.18324 29.5639 4.94886 30.5487 4.94886C31.5336 4.94886 32.3953 5.18324 33.134 5.65199C33.8773 6.12074 34.455 6.77888 34.8669 7.62642C35.2836 8.47396 35.4919 9.46591 35.4919 10.6023C35.4919 11.7292 35.2836 12.714 34.8669 13.5568C34.455 14.3996 33.8773 15.0554 33.134 15.5241C32.3953 15.9929 31.5336 16.2273 30.5487 16.2273ZM30.5487 14.7216C31.2968 14.7216 31.9124 14.5298 32.3953 14.1463C32.8783 13.7628 33.2357 13.2585 33.4678 12.6335C33.6998 12.0085 33.8158 11.3314 33.8158 10.6023C33.8158 9.87311 33.6998 9.19366 33.4678 8.56392C33.2357 7.93419 32.8783 7.42519 32.3953 7.03693C31.9124 6.64867 31.2968 6.45455 30.5487 6.45455C29.8006 6.45455 29.1851 6.64867 28.7021 7.03693C28.2192 7.42519 27.8617 7.93419 27.6297 8.56392C27.3977 9.19366 27.2817 9.87311 27.2817 10.6023C27.2817 11.3314 27.3977 12.0085 27.6297 12.6335C27.8617 13.2585 28.2192 13.7628 28.7021 14.1463C29.1851 14.5298 29.8006 14.7216 30.5487 14.7216ZM42.6448 5.09091V6.51136H36.9914V5.09091H42.6448ZM38.6391 2.47727H40.3153V12.875C40.3153 13.3485 40.3839 13.7036 40.5212 13.9403C40.6633 14.1723 40.8432 14.3286 41.061 14.4091C41.2835 14.4848 41.5179 14.5227 41.7641 14.5227C41.9488 14.5227 42.1003 14.5133 42.2187 14.4943C42.337 14.4706 42.4317 14.4517 42.5028 14.4375L42.8437 15.9432C42.73 15.9858 42.5714 16.0284 42.3678 16.071C42.1642 16.1184 41.9062 16.142 41.5937 16.142C41.1202 16.142 40.6562 16.0402 40.2016 15.8366C39.7518 15.633 39.3778 15.3229 39.0795 14.9062C38.7859 14.4896 38.6391 13.964 38.6391 13.3295V2.47727ZM49.4728 16.2273C48.4217 16.2273 47.5149 15.9953 46.7526 15.5312C45.9951 15.0625 45.4103 14.4091 44.9984 13.571C44.5912 12.7282 44.3876 11.7481 44.3876 10.6307C44.3876 9.51326 44.5912 8.52841 44.9984 7.67614C45.4103 6.81913 45.9832 6.15152 46.7171 5.6733C47.4558 5.19034 48.3175 4.94886 49.3023 4.94886C49.8705 4.94886 50.4316 5.04356 50.9856 5.23295C51.5396 5.42235 52.0438 5.73011 52.4984 6.15625C52.9529 6.57765 53.3151 7.13636 53.585 7.83239C53.8549 8.52841 53.9898 9.38542 53.9898 10.4034V11.1136H45.5808V9.66477H52.2853C52.2853 9.04924 52.1622 8.5 51.916 8.01705C51.6745 7.53409 51.3289 7.15294 50.8791 6.87358C50.434 6.59422 49.9084 6.45455 49.3023 6.45455C48.6347 6.45455 48.0571 6.62026 47.5694 6.9517C47.0864 7.27841 46.7148 7.70455 46.4543 8.23011C46.1939 8.75568 46.0637 9.31913 46.0637 9.92045V10.8864C46.0637 11.7102 46.2058 12.4086 46.4898 12.9815C46.7787 13.5497 47.1788 13.983 47.6901 14.2812C48.2015 14.5748 48.7957 14.7216 49.4728 14.7216C49.9131 14.7216 50.3109 14.66 50.666 14.5369C51.0258 14.4091 51.336 14.2197 51.5964 13.9688C51.8568 13.7131 52.058 13.3958 52.2001 13.017L53.8194 13.4716C53.6489 14.0208 53.3625 14.5038 52.96 14.9205C52.5576 15.3324 52.0604 15.6544 51.4685 15.8864C50.8767 16.1136 50.2114 16.2273 49.4728 16.2273ZM64.1168 7.53409L62.6112 7.96023C62.5165 7.70928 62.3768 7.46544 62.1921 7.22869C62.0122 6.98722 61.766 6.78835 61.4535 6.6321C61.141 6.47585 60.7409 6.39773 60.2532 6.39773C59.5856 6.39773 59.0292 6.55161 58.5842 6.85938C58.1438 7.16241 57.9237 7.5483 57.9237 8.01705C57.9237 8.43371 58.0752 8.76278 58.3782 9.00426C58.6812 9.24574 59.1547 9.44697 59.7987 9.60795L61.418 10.0057C62.3933 10.2424 63.1201 10.6046 63.5984 11.0923C64.0766 11.5753 64.3157 12.1979 64.3157 12.9602C64.3157 13.5852 64.1358 14.1439 63.7759 14.6364C63.4208 15.1288 62.9237 15.517 62.2844 15.8011C61.6452 16.0852 60.9019 16.2273 60.0543 16.2273C58.9416 16.2273 58.0207 15.9858 57.2915 15.5028C56.5624 15.0199 56.1007 14.3144 55.9066 13.3864L57.4975 12.9886C57.649 13.5758 57.9355 14.0161 58.3569 14.3097C58.783 14.6032 59.3394 14.75 60.0259 14.75C60.8072 14.75 61.4274 14.5843 61.8867 14.2528C62.3507 13.9167 62.5827 13.5142 62.5827 13.0455C62.5827 12.6667 62.4502 12.3494 62.185 12.0938C61.9199 11.8333 61.5127 11.6392 60.9634 11.5114L59.1452 11.0852C58.1462 10.8485 57.4123 10.4815 56.9435 9.98438C56.4795 9.48248 56.2475 8.85511 56.2475 8.10227C56.2475 7.48674 56.4203 6.94223 56.766 6.46875C57.1164 5.99527 57.5922 5.62358 58.1935 5.35369C58.7996 5.08381 59.4862 4.94886 60.2532 4.94886C61.3327 4.94886 62.1803 5.18561 62.7958 5.65909C63.4161 6.13258 63.8564 6.75758 64.1168 7.53409ZM71.8308 0.772726L67.1433 18.1875H65.6092L70.2967 0.772726H71.8308ZM83.2984 10.8864L74.1506 15.5455V13.7273L81.1677 10.3466L81.1109 10.4602V10.1761L81.1677 10.2898L74.1506 6.90909V5.09091L83.2984 9.75V10.8864ZM89.1729 16L85.849 5.09091H87.6104L89.9683 13.4432H90.082L92.4115 5.09091H94.2013L96.5024 13.4148H96.6161L98.974 5.09091H100.735L97.4115 16H95.7638L93.3774 7.61932H93.207L90.8206 16H89.1729ZM107.004 16.2273C105.953 16.2273 105.046 15.9953 104.284 15.5312C103.526 15.0625 102.942 14.4091 102.53 13.571C102.122 12.7282 101.919 11.7481 101.919 10.6307C101.919 9.51326 102.122 8.52841 102.53 7.67614C102.942 6.81913 103.514 6.15152 104.248 5.6733C104.987 5.19034 105.849 4.94886 106.834 4.94886C107.402 4.94886 107.963 5.04356 108.517 5.23295C109.071 5.42235 109.575 5.73011 110.03 6.15625C110.484 6.57765 110.846 7.13636 111.116 7.83239C111.386 8.52841 111.521 9.38542 111.521 10.4034V11.1136H103.112V9.66477H109.817C109.817 9.04924 109.693 8.5 109.447 8.01705C109.206 7.53409 108.86 7.15294 108.41 6.87358C107.965 6.59422 107.44 6.45455 106.834 6.45455C106.166 6.45455 105.588 6.62026 105.101 6.9517C104.618 7.27841 104.246 7.70455 103.986 8.23011C103.725 8.75568 103.595 9.31913 103.595 9.92045V10.8864C103.595 11.7102 103.737 12.4086 104.021 12.9815C104.31 13.5497 104.71 13.983 105.221 14.2812C105.733 14.5748 106.327 14.7216 107.004 14.7216C107.444 14.7216 107.842 14.66 108.197 14.5369C108.557 14.4091 108.867 14.2197 109.128 13.9688C109.388 13.7131 109.589 13.3958 109.731 13.017L111.351 13.4716C111.18 14.0208 110.894 14.5038 110.491 14.9205C110.089 15.3324 109.592 15.6544 109 15.8864C108.408 16.1136 107.743 16.2273 107.004 16.2273ZM114.148 16V1.45455H115.824V6.82386H115.966C116.089 6.63447 116.26 6.39299 116.478 6.09943C116.7 5.80114 117.017 5.53598 117.429 5.30398C117.846 5.06723 118.409 4.94886 119.12 4.94886C120.038 4.94886 120.848 5.1785 121.549 5.63778C122.249 6.09706 122.796 6.74811 123.189 7.59091C123.582 8.43371 123.779 9.42803 123.779 10.5739C123.779 11.7292 123.582 12.7306 123.189 13.5781C122.796 14.4209 122.252 15.0743 121.556 15.5384C120.86 15.9976 120.057 16.2273 119.148 16.2273C118.447 16.2273 117.886 16.1113 117.465 15.8793C117.043 15.6425 116.719 15.375 116.492 15.0767C116.265 14.7737 116.089 14.5227 115.966 14.3239H115.767V16H114.148ZM115.796 10.5455C115.796 11.3693 115.917 12.0961 116.158 12.7259C116.4 13.3509 116.752 13.8409 117.216 14.196C117.68 14.5464 118.248 14.7216 118.921 14.7216C119.622 14.7216 120.206 14.5369 120.675 14.1676C121.149 13.7936 121.504 13.2917 121.74 12.6619C121.982 12.0275 122.103 11.322 122.103 10.5455C122.103 9.77841 121.984 9.08712 121.748 8.47159C121.516 7.85133 121.163 7.36127 120.689 7.00142C120.221 6.63684 119.631 6.45455 118.921 6.45455C118.239 6.45455 117.666 6.62737 117.202 6.97301C116.738 7.31392 116.388 7.79214 116.151 8.40767C115.914 9.01847 115.796 9.73106 115.796 10.5455Z" fill="#435C80"/>
</g>
<defs>
<filter id="filter0_d_7105_296" x="-1.98297" y="0.772736" width="129.762" height="25.4148" filterUnits="userSpaceOnUse" color-interpolation-filters="sRGB">
<feFlood flood-opacity="0" result="BackgroundImageFix"/>
<feColorMatrix in="SourceAlpha" type="matrix" values="0 0 0 0 0 0 0 0 0 0 0 0 0 0 0 0 0 0 127 0" result="hardAlpha"/>
<feOffset dy="4"/>
<feGaussianBlur stdDeviation="2"/>
<feComposite in2="hardAlpha" operator="out"/>
<feColorMatrix type="matrix" values="0 0 0 0 0 0 0 0 0 0 0 0 0 0 0 0 0 0 0.25 0"/>
<feBlend mode="normal" in2="BackgroundImageFix" result="effect1_dropShadow_7105_296"/>
<feBlend mode="normal" in="SourceGraphic" in2="effect1_dropShadow_7105_296" result="shape"/>
</filter>
</defs>
</svg>
